<svg xmlns="http://www.w3.org/2000/svg" width="20.999" height="21" viewBox="0 0 20.999 21">
  <path id="_2" data-name="2" d="M18.172,0H2.832A2.83,2.83,0,0,0,0,2.83V18.17A2.83,2.83,0,0,0,2.832,21H10.4l.013-7.5H8.461A.46.46,0,0,1,8,13.037l-.009-2.419a.46.46,0,0,1,.46-.462H10.4V7.819A3.819,3.819,0,0,1,14.473,3.63h1.985a.46.46,0,0,1,.46.46V6.13a.46.46,0,0,1-.46.46H15.241c-1.316,0-1.571.625-1.571,1.543v2.023h2.891a.46.46,0,0,1,.457.514l-.287,2.419a.46.46,0,0,1-.457.406H13.683L13.67,21h4.5A2.83,2.83,0,0,0,21,18.17V2.83A2.83,2.83,0,0,0,18.172,0Z" transform="translate(-0.002)" fill="#f5f5f5"/>
</svg>
