<svg xmlns="http://www.w3.org/2000/svg" width="19.946" height="19.946" viewBox="0 0 19.946 19.946">
  <path id="_4" data-name="4" d="M15.791,0H4.156A4.156,4.156,0,0,0,0,4.156V15.791a4.156,4.156,0,0,0,4.156,4.156H15.791a4.155,4.155,0,0,0,4.156-4.156V4.156A4.155,4.155,0,0,0,15.791,0ZM9.973,16.622A6.641,6.641,0,0,1,8,16.325a7.429,7.429,0,0,0,.826-1.744L9.245,13a1.778,1.778,0,0,0,1.523.763c2.006,0,3.451-1.844,3.451-4.136a3.9,3.9,0,0,0-4.1-3.84A4.03,4.03,0,0,0,5.726,9.813a2.982,2.982,0,0,0,1.35,2.576c.125.058.193.032.223-.089l.185-.754a.2.2,0,0,0-.047-.191,2.581,2.581,0,0,1-.495-1.517,2.878,2.878,0,0,1,3-2.886,2.624,2.624,0,0,1,2.777,2.705c0,1.8-.908,3.044-2.09,3.044a.965.965,0,0,1-.985-1.2A13.35,13.35,0,0,0,10.2,9.287a.836.836,0,0,0-.841-.937c-.667,0-1.2.691-1.2,1.615a2.4,2.4,0,0,0,.2.987s-.659,2.787-.78,3.305a6.366,6.366,0,0,0-.023,1.907,6.649,6.649,0,1,1,2.425.458Z" fill="#f5f5f5"/>
</svg>
