<svg xmlns="http://www.w3.org/2000/svg" width="96" height="96" viewBox="0 0 96 96">
  <g id="kuar" transform="translate(6 6)">
    <rect id="Retângulo_1319" data-name="Retângulo 1319" width="96" height="96" transform="translate(-6 -6)" fill="#fff"/>
    <rect id="Retângulo_1320" data-name="Retângulo 1320" width="3" height="3" transform="translate(5 5)"/>
    <rect id="Retângulo_1321" data-name="Retângulo 1321" width="3" height="3" transform="translate(8 5)"/>
    <rect id="Retângulo_1322" data-name="Retângulo 1322" width="3" height="3" transform="translate(11 5)"/>
    <rect id="Retângulo_1323" data-name="Retângulo 1323" width="3" height="3" transform="translate(14 5)"/>
    <rect id="Retângulo_1324" data-name="Retângulo 1324" width="3" height="3" transform="translate(17 5)"/>
    <rect id="Retângulo_1325" data-name="Retângulo 1325" width="3" height="3" transform="translate(20 5)"/>
    <rect id="Retângulo_1326" data-name="Retângulo 1326" width="3" height="3" transform="translate(23 5)"/>
    <rect id="Retângulo_1327" data-name="Retângulo 1327" width="3" height="3" transform="translate(29 5)"/>
    <rect id="Retângulo_1328" data-name="Retângulo 1328" width="3" height="3" transform="translate(32 5)"/>
    <rect id="Retângulo_1329" data-name="Retângulo 1329" width="3" height="3" transform="translate(35 5)"/>
    <rect id="Retângulo_1330" data-name="Retângulo 1330" width="2" height="3" transform="translate(38 5)"/>
    <rect id="Retângulo_1331" data-name="Retângulo 1331" width="3" height="3" transform="translate(43 5)"/>
    <rect id="Retângulo_1332" data-name="Retângulo 1332" width="3" height="3" transform="translate(49 5)"/>
    <rect id="Retângulo_1333" data-name="Retângulo 1333" width="3" height="3" transform="translate(58 5)"/>
    <rect id="Retângulo_1334" data-name="Retângulo 1334" width="3" height="3" transform="translate(61 5)"/>
    <rect id="Retângulo_1335" data-name="Retângulo 1335" width="3" height="3" transform="translate(64 5)"/>
    <rect id="Retângulo_1336" data-name="Retângulo 1336" width="3" height="3" transform="translate(67 5)"/>
    <rect id="Retângulo_1337" data-name="Retângulo 1337" width="3" height="3" transform="translate(70 5)"/>
    <rect id="Retângulo_1338" data-name="Retângulo 1338" width="3" height="3" transform="translate(73 5)"/>
    <rect id="Retângulo_1339" data-name="Retângulo 1339" width="3" height="3" transform="translate(76 5)"/>
    <rect id="Retângulo_1340" data-name="Retângulo 1340" width="3" height="3" transform="translate(5 8)"/>
    <rect id="Retângulo_1341" data-name="Retângulo 1341" width="3" height="3" transform="translate(23 8)"/>
    <rect id="Retângulo_1342" data-name="Retângulo 1342" width="2" height="3" transform="translate(38 8)"/>
    <rect id="Retângulo_1343" data-name="Retângulo 1343" width="3" height="3" transform="translate(40 8)"/>
    <rect id="Retângulo_1344" data-name="Retângulo 1344" width="3" height="3" transform="translate(43 8)"/>
    <rect id="Retângulo_1345" data-name="Retângulo 1345" width="3" height="3" transform="translate(52 8)"/>
    <rect id="Retângulo_1346" data-name="Retângulo 1346" width="3" height="3" transform="translate(58 8)"/>
    <rect id="Retângulo_1347" data-name="Retângulo 1347" width="3" height="3" transform="translate(76 8)"/>
    <rect id="Retângulo_1348" data-name="Retângulo 1348" width="3" height="3" transform="translate(5 11)"/>
    <rect id="Retângulo_1349" data-name="Retângulo 1349" width="3" height="3" transform="translate(11 11)"/>
    <rect id="Retângulo_1350" data-name="Retângulo 1350" width="3" height="3" transform="translate(14 11)"/>
    <rect id="Retângulo_1351" data-name="Retângulo 1351" width="3" height="3" transform="translate(17 11)"/>
    <rect id="Retângulo_1352" data-name="Retângulo 1352" width="3" height="3" transform="translate(23 11)"/>
    <rect id="Retângulo_1353" data-name="Retângulo 1353" width="3" height="3" transform="translate(32 11)"/>
    <rect id="Retângulo_1354" data-name="Retângulo 1354" width="2" height="3" transform="translate(38 11)"/>
    <rect id="Retângulo_1355" data-name="Retângulo 1355" width="3" height="3" transform="translate(43 11)"/>
    <rect id="Retângulo_1356" data-name="Retângulo 1356" width="3" height="3" transform="translate(49 11)"/>
    <rect id="Retângulo_1357" data-name="Retângulo 1357" width="3" height="3" transform="translate(52 11)"/>
    <rect id="Retângulo_1358" data-name="Retângulo 1358" width="3" height="3" transform="translate(58 11)"/>
    <rect id="Retângulo_1359" data-name="Retângulo 1359" width="3" height="3" transform="translate(64 11)"/>
    <rect id="Retângulo_1360" data-name="Retângulo 1360" width="3" height="3" transform="translate(67 11)"/>
    <rect id="Retângulo_1361" data-name="Retângulo 1361" width="3" height="3" transform="translate(70 11)"/>
    <rect id="Retângulo_1362" data-name="Retângulo 1362" width="3" height="3" transform="translate(76 11)"/>
    <rect id="Retângulo_1363" data-name="Retângulo 1363" width="3" height="3" transform="translate(5 14)"/>
    <rect id="Retângulo_1364" data-name="Retângulo 1364" width="3" height="3" transform="translate(11 14)"/>
    <rect id="Retângulo_1365" data-name="Retângulo 1365" width="3" height="3" transform="translate(14 14)"/>
    <rect id="Retângulo_1366" data-name="Retângulo 1366" width="3" height="3" transform="translate(17 14)"/>
    <rect id="Retângulo_1367" data-name="Retângulo 1367" width="3" height="3" transform="translate(23 14)"/>
    <rect id="Retângulo_1368" data-name="Retângulo 1368" width="3" height="3" transform="translate(35 14)"/>
    <rect id="Retângulo_1369" data-name="Retângulo 1369" width="2" height="3" transform="translate(38 14)"/>
    <rect id="Retângulo_1370" data-name="Retângulo 1370" width="3" height="3" transform="translate(43 14)"/>
    <rect id="Retângulo_1371" data-name="Retângulo 1371" width="3" height="3" transform="translate(46 14)"/>
    <rect id="Retângulo_1372" data-name="Retângulo 1372" width="3" height="3" transform="translate(49 14)"/>
    <rect id="Retângulo_1373" data-name="Retângulo 1373" width="3" height="3" transform="translate(58 14)"/>
    <rect id="Retângulo_1374" data-name="Retângulo 1374" width="3" height="3" transform="translate(64 14)"/>
    <rect id="Retângulo_1375" data-name="Retângulo 1375" width="3" height="3" transform="translate(67 14)"/>
    <rect id="Retângulo_1376" data-name="Retângulo 1376" width="3" height="3" transform="translate(70 14)"/>
    <rect id="Retângulo_1377" data-name="Retângulo 1377" width="3" height="3" transform="translate(76 14)"/>
    <rect id="Retângulo_1378" data-name="Retângulo 1378" width="3" height="3" transform="translate(5 17)"/>
    <rect id="Retângulo_1379" data-name="Retângulo 1379" width="3" height="3" transform="translate(11 17)"/>
    <rect id="Retângulo_1380" data-name="Retângulo 1380" width="3" height="3" transform="translate(14 17)"/>
    <rect id="Retângulo_1381" data-name="Retângulo 1381" width="3" height="3" transform="translate(17 17)"/>
    <rect id="Retângulo_1382" data-name="Retângulo 1382" width="3" height="3" transform="translate(23 17)"/>
    <rect id="Retângulo_1383" data-name="Retângulo 1383" width="3" height="3" transform="translate(35 17)"/>
    <rect id="Retângulo_1384" data-name="Retângulo 1384" width="2" height="3" transform="translate(38 17)"/>
    <rect id="Retângulo_1385" data-name="Retângulo 1385" width="3" height="3" transform="translate(40 17)"/>
    <rect id="Retângulo_1386" data-name="Retângulo 1386" width="3" height="3" transform="translate(49 17)"/>
    <rect id="Retângulo_1387" data-name="Retângulo 1387" width="3" height="3" transform="translate(52 17)"/>
    <rect id="Retângulo_1388" data-name="Retângulo 1388" width="3" height="3" transform="translate(58 17)"/>
    <rect id="Retângulo_1389" data-name="Retângulo 1389" width="3" height="3" transform="translate(64 17)"/>
    <rect id="Retângulo_1390" data-name="Retângulo 1390" width="3" height="3" transform="translate(67 17)"/>
    <rect id="Retângulo_1391" data-name="Retângulo 1391" width="3" height="3" transform="translate(70 17)"/>
    <rect id="Retângulo_1392" data-name="Retângulo 1392" width="3" height="3" transform="translate(76 17)"/>
    <rect id="Retângulo_1393" data-name="Retângulo 1393" width="3" height="3" transform="translate(5 20)"/>
    <rect id="Retângulo_1394" data-name="Retângulo 1394" width="3" height="3" transform="translate(23 20)"/>
    <rect id="Retângulo_1395" data-name="Retângulo 1395" width="3" height="3" transform="translate(32 20)"/>
    <rect id="Retângulo_1396" data-name="Retângulo 1396" width="2" height="3" transform="translate(38 20)"/>
    <rect id="Retângulo_1397" data-name="Retângulo 1397" width="3" height="3" transform="translate(43 20)"/>
    <rect id="Retângulo_1398" data-name="Retângulo 1398" width="3" height="3" transform="translate(52 20)"/>
    <rect id="Retângulo_1399" data-name="Retângulo 1399" width="3" height="3" transform="translate(58 20)"/>
    <rect id="Retângulo_1400" data-name="Retângulo 1400" width="3" height="3" transform="translate(76 20)"/>
    <rect id="Retângulo_1401" data-name="Retângulo 1401" width="3" height="3" transform="translate(5 23)"/>
    <rect id="Retângulo_1402" data-name="Retângulo 1402" width="3" height="3" transform="translate(8 23)"/>
    <rect id="Retângulo_1403" data-name="Retângulo 1403" width="3" height="3" transform="translate(11 23)"/>
    <rect id="Retângulo_1404" data-name="Retângulo 1404" width="3" height="3" transform="translate(14 23)"/>
    <rect id="Retângulo_1405" data-name="Retângulo 1405" width="3" height="3" transform="translate(17 23)"/>
    <rect id="Retângulo_1406" data-name="Retângulo 1406" width="3" height="3" transform="translate(20 23)"/>
    <rect id="Retângulo_1407" data-name="Retângulo 1407" width="3" height="3" transform="translate(23 23)"/>
    <rect id="Retângulo_1408" data-name="Retângulo 1408" width="3" height="3" transform="translate(29 23)"/>
    <rect id="Retângulo_1409" data-name="Retângulo 1409" width="3" height="3" transform="translate(35 23)"/>
    <rect id="Retângulo_1410" data-name="Retângulo 1410" width="3" height="3" transform="translate(40 23)"/>
    <rect id="Retângulo_1411" data-name="Retângulo 1411" width="3" height="3" transform="translate(46 23)"/>
    <rect id="Retângulo_1412" data-name="Retângulo 1412" width="3" height="3" transform="translate(52 23)"/>
    <rect id="Retângulo_1413" data-name="Retângulo 1413" width="3" height="3" transform="translate(58 23)"/>
    <rect id="Retângulo_1414" data-name="Retângulo 1414" width="3" height="3" transform="translate(61 23)"/>
    <rect id="Retângulo_1415" data-name="Retângulo 1415" width="3" height="3" transform="translate(64 23)"/>
    <rect id="Retângulo_1416" data-name="Retângulo 1416" width="3" height="3" transform="translate(67 23)"/>
    <rect id="Retângulo_1417" data-name="Retângulo 1417" width="3" height="3" transform="translate(70 23)"/>
    <rect id="Retângulo_1418" data-name="Retângulo 1418" width="3" height="3" transform="translate(73 23)"/>
    <rect id="Retângulo_1419" data-name="Retângulo 1419" width="3" height="3" transform="translate(76 23)"/>
    <rect id="Retângulo_1420" data-name="Retângulo 1420" width="3" height="3" transform="translate(29 26)"/>
    <rect id="Retângulo_1421" data-name="Retângulo 1421" width="3" height="3" transform="translate(32 26)"/>
    <rect id="Retângulo_1422" data-name="Retângulo 1422" width="3" height="3" transform="translate(40 26)"/>
    <rect id="Retângulo_1423" data-name="Retângulo 1423" width="3" height="3" transform="translate(43 26)"/>
    <rect id="Retângulo_1424" data-name="Retângulo 1424" width="3" height="3" transform="translate(49 26)"/>
    <rect id="Retângulo_1425" data-name="Retângulo 1425" width="3" height="3" transform="translate(5 29)"/>
    <rect id="Retângulo_1426" data-name="Retângulo 1426" width="3" height="3" transform="translate(8 29)"/>
    <rect id="Retângulo_1427" data-name="Retângulo 1427" width="3" height="3" transform="translate(14 29)"/>
    <rect id="Retângulo_1428" data-name="Retângulo 1428" width="3" height="3" transform="translate(17 29)"/>
    <rect id="Retângulo_1429" data-name="Retângulo 1429" width="3" height="3" transform="translate(23 29)"/>
    <rect id="Retângulo_1430" data-name="Retângulo 1430" width="3" height="3" transform="translate(32 29)"/>
    <rect id="Retângulo_1431" data-name="Retângulo 1431" width="3" height="3" transform="translate(40 29)"/>
    <rect id="Retângulo_1432" data-name="Retângulo 1432" width="3" height="3" transform="translate(43 29)"/>
    <rect id="Retângulo_1433" data-name="Retângulo 1433" width="3" height="3" transform="translate(46 29)"/>
    <rect id="Retângulo_1434" data-name="Retângulo 1434" width="3" height="3" transform="translate(49 29)"/>
    <rect id="Retângulo_1435" data-name="Retângulo 1435" width="3" height="3" transform="translate(58 29)"/>
    <rect id="Retângulo_1436" data-name="Retângulo 1436" width="3" height="3" transform="translate(76 29)"/>
    <rect id="Retângulo_1437" data-name="Retângulo 1437" width="3" height="3" transform="translate(8 32)"/>
    <rect id="Retângulo_1438" data-name="Retângulo 1438" width="3" height="3" transform="translate(14 32)"/>
    <rect id="Retângulo_1439" data-name="Retângulo 1439" width="3" height="3" transform="translate(17 32)"/>
    <rect id="Retângulo_1440" data-name="Retângulo 1440" width="3" height="3" transform="translate(20 32)"/>
    <rect id="Retângulo_1441" data-name="Retângulo 1441" width="3" height="3" transform="translate(26 32)"/>
    <rect id="Retângulo_1442" data-name="Retângulo 1442" width="3" height="3" transform="translate(29 32)"/>
    <rect id="Retângulo_1443" data-name="Retângulo 1443" width="3" height="3" transform="translate(35 32)"/>
    <rect id="Retângulo_1444" data-name="Retângulo 1444" width="3" height="3" transform="translate(43 32)"/>
    <rect id="Retângulo_1445" data-name="Retângulo 1445" width="3" height="3" transform="translate(49 32)"/>
    <rect id="Retângulo_1446" data-name="Retângulo 1446" width="3" height="3" transform="translate(52 32)"/>
    <rect id="Retângulo_1447" data-name="Retângulo 1447" width="3" height="3" transform="translate(61 32)"/>
    <rect id="Retângulo_1448" data-name="Retângulo 1448" width="3" height="3" transform="translate(64 32)"/>
    <rect id="Retângulo_1449" data-name="Retângulo 1449" width="3" height="3" transform="translate(67 32)"/>
    <rect id="Retângulo_1450" data-name="Retângulo 1450" width="3" height="3" transform="translate(70 32)"/>
    <rect id="Retângulo_1451" data-name="Retângulo 1451" width="3" height="3" transform="translate(73 32)"/>
    <rect id="Retângulo_1452" data-name="Retângulo 1452" width="3" height="3" transform="translate(5 35)"/>
    <rect id="Retângulo_1453" data-name="Retângulo 1453" width="3" height="3" transform="translate(8 35)"/>
    <rect id="Retângulo_1454" data-name="Retângulo 1454" width="3" height="3" transform="translate(11 35)"/>
    <rect id="Retângulo_1455" data-name="Retângulo 1455" width="3" height="3" transform="translate(17 35)"/>
    <rect id="Retângulo_1456" data-name="Retângulo 1456" width="3" height="3" transform="translate(20 35)"/>
    <rect id="Retângulo_1457" data-name="Retângulo 1457" width="3" height="3" transform="translate(23 35)"/>
    <rect id="Retângulo_1458" data-name="Retângulo 1458" width="3" height="3" transform="translate(26 35)"/>
    <rect id="Retângulo_1459" data-name="Retângulo 1459" width="3" height="3" transform="translate(32 35)"/>
    <rect id="Retângulo_1460" data-name="Retângulo 1460" width="3" height="3" transform="translate(40 35)"/>
    <rect id="Retângulo_1461" data-name="Retângulo 1461" width="3" height="3" transform="translate(46 35)"/>
    <rect id="Retângulo_1462" data-name="Retângulo 1462" width="3" height="3" transform="translate(49 35)"/>
    <rect id="Retângulo_1463" data-name="Retângulo 1463" width="3" height="3" transform="translate(52 35)"/>
    <rect id="Retângulo_1464" data-name="Retângulo 1464" width="3" height="3" transform="translate(55 35)"/>
    <rect id="Retângulo_1465" data-name="Retângulo 1465" width="3" height="3" transform="translate(67 35)"/>
    <rect id="Retângulo_1466" data-name="Retângulo 1466" width="3" height="3" transform="translate(76 35)"/>
    <rect id="Retângulo_1467" data-name="Retângulo 1467" width="3" height="2" transform="translate(5 38)"/>
    <rect id="Retângulo_1468" data-name="Retângulo 1468" width="3" height="2" transform="translate(17 38)"/>
    <rect id="Retângulo_1469" data-name="Retângulo 1469" width="3" height="2" transform="translate(29 38)"/>
    <rect id="Retângulo_1470" data-name="Retângulo 1470" width="3" height="2" transform="translate(46 38)"/>
    <rect id="Retângulo_1471" data-name="Retângulo 1471" width="3" height="2" transform="translate(49 38)"/>
    <rect id="Retângulo_1472" data-name="Retângulo 1472" width="3" height="2" transform="translate(58 38)"/>
    <rect id="Retângulo_1473" data-name="Retângulo 1473" width="3" height="2" transform="translate(67 38)"/>
    <rect id="Retângulo_1474" data-name="Retângulo 1474" width="3" height="2" transform="translate(70 38)"/>
    <rect id="Retângulo_1475" data-name="Retângulo 1475" width="3" height="2" transform="translate(73 38)"/>
    <rect id="Retângulo_1476" data-name="Retângulo 1476" width="3" height="2" transform="translate(76 38)"/>
    <rect id="Retângulo_1477" data-name="Retângulo 1477" width="3" height="3" transform="translate(14 40)"/>
    <rect id="Retângulo_1478" data-name="Retângulo 1478" width="3" height="3" transform="translate(17 40)"/>
    <rect id="Retângulo_1479" data-name="Retângulo 1479" width="3" height="3" transform="translate(20 40)"/>
    <rect id="Retângulo_1480" data-name="Retângulo 1480" width="3" height="3" transform="translate(23 40)"/>
    <rect id="Retângulo_1481" data-name="Retângulo 1481" width="3" height="3" transform="translate(26 40)"/>
    <rect id="Retângulo_1482" data-name="Retângulo 1482" width="3" height="3" transform="translate(29 40)"/>
    <rect id="Retângulo_1483" data-name="Retângulo 1483" width="3" height="3" transform="translate(32 40)"/>
    <rect id="Retângulo_1484" data-name="Retângulo 1484" width="3" height="3" transform="translate(35 40)"/>
    <rect id="Retângulo_1485" data-name="Retângulo 1485" width="3" height="3" transform="translate(43 40)"/>
    <rect id="Retângulo_1486" data-name="Retângulo 1486" width="3" height="3" transform="translate(52 40)"/>
    <rect id="Retângulo_1487" data-name="Retângulo 1487" width="3" height="3" transform="translate(58 40)"/>
    <rect id="Retângulo_1488" data-name="Retângulo 1488" width="3" height="3" transform="translate(61 40)"/>
    <rect id="Retângulo_1489" data-name="Retângulo 1489" width="3" height="3" transform="translate(76 40)"/>
    <rect id="Retângulo_1490" data-name="Retângulo 1490" width="3" height="3" transform="translate(5 43)"/>
    <rect id="Retângulo_1491" data-name="Retângulo 1491" width="3" height="3" transform="translate(14 43)"/>
    <rect id="Retângulo_1492" data-name="Retângulo 1492" width="3" height="3" transform="translate(20 43)"/>
    <rect id="Retângulo_1493" data-name="Retângulo 1493" width="3" height="3" transform="translate(32 43)"/>
    <rect id="Retângulo_1494" data-name="Retângulo 1494" width="3" height="3" transform="translate(35 43)"/>
    <rect id="Retângulo_1495" data-name="Retângulo 1495" width="3" height="3" transform="translate(40 43)"/>
    <rect id="Retângulo_1496" data-name="Retângulo 1496" width="3" height="3" transform="translate(46 43)"/>
    <rect id="Retângulo_1497" data-name="Retângulo 1497" width="3" height="3" transform="translate(49 43)"/>
    <rect id="Retângulo_1498" data-name="Retângulo 1498" width="3" height="3" transform="translate(55 43)"/>
    <rect id="Retângulo_1499" data-name="Retângulo 1499" width="3" height="3" transform="translate(64 43)"/>
    <rect id="Retângulo_1500" data-name="Retângulo 1500" width="3" height="3" transform="translate(73 43)"/>
    <rect id="Retângulo_1501" data-name="Retângulo 1501" width="3" height="3" transform="translate(5 46)"/>
    <rect id="Retângulo_1502" data-name="Retângulo 1502" width="3" height="3" transform="translate(8 46)"/>
    <rect id="Retângulo_1503" data-name="Retângulo 1503" width="3" height="3" transform="translate(14 46)"/>
    <rect id="Retângulo_1504" data-name="Retângulo 1504" width="3" height="3" transform="translate(23 46)"/>
    <rect id="Retângulo_1505" data-name="Retângulo 1505" width="3" height="3" transform="translate(26 46)"/>
    <rect id="Retângulo_1506" data-name="Retângulo 1506" width="3" height="3" transform="translate(29 46)"/>
    <rect id="Retângulo_1507" data-name="Retângulo 1507" width="3" height="3" transform="translate(46 46)"/>
    <rect id="Retângulo_1508" data-name="Retângulo 1508" width="3" height="3" transform="translate(49 46)"/>
    <rect id="Retângulo_1509" data-name="Retângulo 1509" width="3" height="3" transform="translate(55 46)"/>
    <rect id="Retângulo_1510" data-name="Retângulo 1510" width="3" height="3" transform="translate(58 46)"/>
    <rect id="Retângulo_1511" data-name="Retângulo 1511" width="3" height="3" transform="translate(64 46)"/>
    <rect id="Retângulo_1512" data-name="Retângulo 1512" width="3" height="3" transform="translate(67 46)"/>
    <rect id="Retângulo_1513" data-name="Retângulo 1513" width="3" height="3" transform="translate(70 46)"/>
    <rect id="Retângulo_1514" data-name="Retângulo 1514" width="3" height="3" transform="translate(73 46)"/>
    <rect id="Retângulo_1515" data-name="Retângulo 1515" width="3" height="3" transform="translate(76 46)"/>
    <rect id="Retângulo_1516" data-name="Retângulo 1516" width="3" height="3" transform="translate(5 49)"/>
    <rect id="Retângulo_1517" data-name="Retângulo 1517" width="3" height="3" transform="translate(11 49)"/>
    <rect id="Retângulo_1518" data-name="Retângulo 1518" width="3" height="3" transform="translate(14 49)"/>
    <rect id="Retângulo_1519" data-name="Retângulo 1519" width="3" height="3" transform="translate(17 49)"/>
    <rect id="Retângulo_1520" data-name="Retângulo 1520" width="3" height="3" transform="translate(26 49)"/>
    <rect id="Retângulo_1521" data-name="Retângulo 1521" width="3" height="3" transform="translate(40 49)"/>
    <rect id="Retângulo_1522" data-name="Retângulo 1522" width="3" height="3" transform="translate(52 49)"/>
    <rect id="Retângulo_1523" data-name="Retângulo 1523" width="3" height="3" transform="translate(58 49)"/>
    <rect id="Retângulo_1524" data-name="Retângulo 1524" width="3" height="3" transform="translate(61 49)"/>
    <rect id="Retângulo_1525" data-name="Retângulo 1525" width="3" height="3" transform="translate(67 49)"/>
    <rect id="Retângulo_1526" data-name="Retângulo 1526" width="3" height="3" transform="translate(70 49)"/>
    <rect id="Retângulo_1527" data-name="Retângulo 1527" width="3" height="3" transform="translate(76 49)"/>
    <rect id="Retângulo_1528" data-name="Retângulo 1528" width="3" height="3" transform="translate(5 52)"/>
    <rect id="Retângulo_1529" data-name="Retângulo 1529" width="3" height="3" transform="translate(11 52)"/>
    <rect id="Retângulo_1530" data-name="Retângulo 1530" width="3" height="3" transform="translate(14 52)"/>
    <rect id="Retângulo_1531" data-name="Retângulo 1531" width="3" height="3" transform="translate(17 52)"/>
    <rect id="Retângulo_1532" data-name="Retângulo 1532" width="3" height="3" transform="translate(23 52)"/>
    <rect id="Retângulo_1533" data-name="Retângulo 1533" width="3" height="3" transform="translate(26 52)"/>
    <rect id="Retângulo_1534" data-name="Retângulo 1534" width="3" height="3" transform="translate(29 52)"/>
    <rect id="Retângulo_1535" data-name="Retângulo 1535" width="3" height="3" transform="translate(35 52)"/>
    <rect id="Retângulo_1536" data-name="Retângulo 1536" width="2" height="3" transform="translate(38 52)"/>
    <rect id="Retângulo_1537" data-name="Retângulo 1537" width="3" height="3" transform="translate(40 52)"/>
    <rect id="Retângulo_1538" data-name="Retângulo 1538" width="3" height="3" transform="translate(52 52)"/>
    <rect id="Retângulo_1539" data-name="Retângulo 1539" width="3" height="3" transform="translate(55 52)"/>
    <rect id="Retângulo_1540" data-name="Retângulo 1540" width="3" height="3" transform="translate(58 52)"/>
    <rect id="Retângulo_1541" data-name="Retângulo 1541" width="3" height="3" transform="translate(61 52)"/>
    <rect id="Retângulo_1542" data-name="Retângulo 1542" width="3" height="3" transform="translate(64 52)"/>
    <rect id="Retângulo_1543" data-name="Retângulo 1543" width="3" height="3" transform="translate(70 52)"/>
    <rect id="Retângulo_1544" data-name="Retângulo 1544" width="3" height="3" transform="translate(73 52)"/>
    <rect id="Retângulo_1545" data-name="Retângulo 1545" width="3" height="3" transform="translate(29 55)"/>
    <rect id="Retângulo_1546" data-name="Retângulo 1546" width="2" height="3" transform="translate(38 55)"/>
    <rect id="Retângulo_1547" data-name="Retângulo 1547" width="3" height="3" transform="translate(46 55)"/>
    <rect id="Retângulo_1548" data-name="Retângulo 1548" width="3" height="3" transform="translate(49 55)"/>
    <rect id="Retângulo_1549" data-name="Retângulo 1549" width="3" height="3" transform="translate(52 55)"/>
    <rect id="Retângulo_1550" data-name="Retângulo 1550" width="3" height="3" transform="translate(64 55)"/>
    <rect id="Retângulo_1551" data-name="Retângulo 1551" width="3" height="3" transform="translate(70 55)"/>
    <rect id="Retângulo_1552" data-name="Retângulo 1552" width="3" height="3" transform="translate(73 55)"/>
    <rect id="Retângulo_1553" data-name="Retângulo 1553" width="3" height="3" transform="translate(5 58)"/>
    <rect id="Retângulo_1554" data-name="Retângulo 1554" width="3" height="3" transform="translate(8 58)"/>
    <rect id="Retângulo_1555" data-name="Retângulo 1555" width="3" height="3" transform="translate(11 58)"/>
    <rect id="Retângulo_1556" data-name="Retângulo 1556" width="3" height="3" transform="translate(14 58)"/>
    <rect id="Retângulo_1557" data-name="Retângulo 1557" width="3" height="3" transform="translate(17 58)"/>
    <rect id="Retângulo_1558" data-name="Retângulo 1558" width="3" height="3" transform="translate(20 58)"/>
    <rect id="Retângulo_1559" data-name="Retângulo 1559" width="3" height="3" transform="translate(23 58)"/>
    <rect id="Retângulo_1560" data-name="Retângulo 1560" width="3" height="3" transform="translate(32 58)"/>
    <rect id="Retângulo_1561" data-name="Retângulo 1561" width="3" height="3" transform="translate(40 58)"/>
    <rect id="Retângulo_1562" data-name="Retângulo 1562" width="3" height="3" transform="translate(52 58)"/>
    <rect id="Retângulo_1563" data-name="Retângulo 1563" width="3" height="3" transform="translate(58 58)"/>
    <rect id="Retângulo_1564" data-name="Retângulo 1564" width="3" height="3" transform="translate(64 58)"/>
    <rect id="Retângulo_1565" data-name="Retângulo 1565" width="3" height="3" transform="translate(76 58)"/>
    <rect id="Retângulo_1566" data-name="Retângulo 1566" width="3" height="3" transform="translate(5 61)"/>
    <rect id="Retângulo_1567" data-name="Retângulo 1567" width="3" height="3" transform="translate(23 61)"/>
    <rect id="Retângulo_1568" data-name="Retângulo 1568" width="3" height="3" transform="translate(35 61)"/>
    <rect id="Retângulo_1569" data-name="Retângulo 1569" width="2" height="3" transform="translate(38 61)"/>
    <rect id="Retângulo_1570" data-name="Retângulo 1570" width="3" height="3" transform="translate(43 61)"/>
    <rect id="Retângulo_1571" data-name="Retângulo 1571" width="3" height="3" transform="translate(49 61)"/>
    <rect id="Retângulo_1572" data-name="Retângulo 1572" width="3" height="3" transform="translate(52 61)"/>
    <rect id="Retângulo_1573" data-name="Retângulo 1573" width="3" height="3" transform="translate(64 61)"/>
    <rect id="Retângulo_1574" data-name="Retângulo 1574" width="3" height="3" transform="translate(5 64)"/>
    <rect id="Retângulo_1575" data-name="Retângulo 1575" width="3" height="3" transform="translate(11 64)"/>
    <rect id="Retângulo_1576" data-name="Retângulo 1576" width="3" height="3" transform="translate(14 64)"/>
    <rect id="Retângulo_1577" data-name="Retângulo 1577" width="3" height="3" transform="translate(17 64)"/>
    <rect id="Retângulo_1578" data-name="Retângulo 1578" width="3" height="3" transform="translate(23 64)"/>
    <rect id="Retângulo_1579" data-name="Retângulo 1579" width="3" height="3" transform="translate(29 64)"/>
    <rect id="Retângulo_1580" data-name="Retângulo 1580" width="3" height="3" transform="translate(35 64)"/>
    <rect id="Retângulo_1581" data-name="Retângulo 1581" width="2" height="3" transform="translate(38 64)"/>
    <rect id="Retângulo_1582" data-name="Retângulo 1582" width="3" height="3" transform="translate(43 64)"/>
    <rect id="Retângulo_1583" data-name="Retângulo 1583" width="3" height="3" transform="translate(49 64)"/>
    <rect id="Retângulo_1584" data-name="Retângulo 1584" width="3" height="3" transform="translate(52 64)"/>
    <rect id="Retângulo_1585" data-name="Retângulo 1585" width="3" height="3" transform="translate(55 64)"/>
    <rect id="Retângulo_1586" data-name="Retângulo 1586" width="3" height="3" transform="translate(58 64)"/>
    <rect id="Retângulo_1587" data-name="Retângulo 1587" width="3" height="3" transform="translate(61 64)"/>
    <rect id="Retângulo_1588" data-name="Retângulo 1588" width="3" height="3" transform="translate(64 64)"/>
    <rect id="Retângulo_1589" data-name="Retângulo 1589" width="3" height="3" transform="translate(73 64)"/>
    <rect id="Retângulo_1590" data-name="Retângulo 1590" width="3" height="3" transform="translate(76 64)"/>
    <rect id="Retângulo_1591" data-name="Retângulo 1591" width="3" height="3" transform="translate(5 67)"/>
    <rect id="Retângulo_1592" data-name="Retângulo 1592" width="3" height="3" transform="translate(11 67)"/>
    <rect id="Retângulo_1593" data-name="Retângulo 1593" width="3" height="3" transform="translate(14 67)"/>
    <rect id="Retângulo_1594" data-name="Retângulo 1594" width="3" height="3" transform="translate(17 67)"/>
    <rect id="Retângulo_1595" data-name="Retângulo 1595" width="3" height="3" transform="translate(23 67)"/>
    <rect id="Retângulo_1596" data-name="Retângulo 1596" width="3" height="3" transform="translate(29 67)"/>
    <rect id="Retângulo_1597" data-name="Retângulo 1597" width="3" height="3" transform="translate(32 67)"/>
    <rect id="Retângulo_1598" data-name="Retângulo 1598" width="3" height="3" transform="translate(35 67)"/>
    <rect id="Retângulo_1599" data-name="Retângulo 1599" width="3" height="3" transform="translate(40 67)"/>
    <rect id="Retângulo_1600" data-name="Retângulo 1600" width="3" height="3" transform="translate(43 67)"/>
    <rect id="Retângulo_1601" data-name="Retângulo 1601" width="3" height="3" transform="translate(46 67)"/>
    <rect id="Retângulo_1602" data-name="Retângulo 1602" width="3" height="3" transform="translate(52 67)"/>
    <rect id="Retângulo_1603" data-name="Retângulo 1603" width="3" height="3" transform="translate(58 67)"/>
    <rect id="Retângulo_1604" data-name="Retângulo 1604" width="3" height="3" transform="translate(73 67)"/>
    <rect id="Retângulo_1605" data-name="Retângulo 1605" width="3" height="3" transform="translate(76 67)"/>
    <rect id="Retângulo_1606" data-name="Retângulo 1606" width="3" height="3" transform="translate(5 70)"/>
    <rect id="Retângulo_1607" data-name="Retângulo 1607" width="3" height="3" transform="translate(11 70)"/>
    <rect id="Retângulo_1608" data-name="Retângulo 1608" width="3" height="3" transform="translate(14 70)"/>
    <rect id="Retângulo_1609" data-name="Retângulo 1609" width="3" height="3" transform="translate(17 70)"/>
    <rect id="Retângulo_1610" data-name="Retângulo 1610" width="3" height="3" transform="translate(23 70)"/>
    <rect id="Retângulo_1611" data-name="Retângulo 1611" width="2" height="3" transform="translate(38 70)"/>
    <rect id="Retângulo_1612" data-name="Retângulo 1612" width="3" height="3" transform="translate(43 70)"/>
    <rect id="Retângulo_1613" data-name="Retângulo 1613" width="3" height="3" transform="translate(52 70)"/>
    <rect id="Retângulo_1614" data-name="Retângulo 1614" width="3" height="3" transform="translate(55 70)"/>
    <rect id="Retângulo_1615" data-name="Retângulo 1615" width="3" height="3" transform="translate(64 70)"/>
    <rect id="Retângulo_1616" data-name="Retângulo 1616" width="3" height="3" transform="translate(67 70)"/>
    <rect id="Retângulo_1617" data-name="Retângulo 1617" width="3" height="3" transform="translate(70 70)"/>
    <rect id="Retângulo_1618" data-name="Retângulo 1618" width="3" height="3" transform="translate(73 70)"/>
    <rect id="Retângulo_1619" data-name="Retângulo 1619" width="3" height="3" transform="translate(76 70)"/>
    <rect id="Retângulo_1620" data-name="Retângulo 1620" width="3" height="3" transform="translate(5 73)"/>
    <rect id="Retângulo_1621" data-name="Retângulo 1621" width="3" height="3" transform="translate(23 73)"/>
    <rect id="Retângulo_1622" data-name="Retângulo 1622" width="3" height="3" transform="translate(29 73)"/>
    <rect id="Retângulo_1623" data-name="Retângulo 1623" width="3" height="3" transform="translate(35 73)"/>
    <rect id="Retângulo_1624" data-name="Retângulo 1624" width="2" height="3" transform="translate(38 73)"/>
    <rect id="Retângulo_1625" data-name="Retângulo 1625" width="3" height="3" transform="translate(40 73)"/>
    <rect id="Retângulo_1626" data-name="Retângulo 1626" width="3" height="3" transform="translate(43 73)"/>
    <rect id="Retângulo_1627" data-name="Retângulo 1627" width="3" height="3" transform="translate(61 73)"/>
    <rect id="Retângulo_1628" data-name="Retângulo 1628" width="3" height="3" transform="translate(64 73)"/>
    <rect id="Retângulo_1629" data-name="Retângulo 1629" width="3" height="3" transform="translate(70 73)"/>
    <rect id="Retângulo_1630" data-name="Retângulo 1630" width="3" height="3" transform="translate(73 73)"/>
    <rect id="Retângulo_1631" data-name="Retângulo 1631" width="3" height="3" transform="translate(76 73)"/>
    <rect id="Retângulo_1632" data-name="Retângulo 1632" width="3" height="3" transform="translate(5 76)"/>
    <rect id="Retângulo_1633" data-name="Retângulo 1633" width="3" height="3" transform="translate(8 76)"/>
    <rect id="Retângulo_1634" data-name="Retângulo 1634" width="3" height="3" transform="translate(11 76)"/>
    <rect id="Retângulo_1635" data-name="Retângulo 1635" width="3" height="3" transform="translate(14 76)"/>
    <rect id="Retângulo_1636" data-name="Retângulo 1636" width="3" height="3" transform="translate(17 76)"/>
    <rect id="Retângulo_1637" data-name="Retângulo 1637" width="3" height="3" transform="translate(20 76)"/>
    <rect id="Retângulo_1638" data-name="Retângulo 1638" width="3" height="3" transform="translate(23 76)"/>
    <rect id="Retângulo_1639" data-name="Retângulo 1639" width="3" height="3" transform="translate(29 76)"/>
    <rect id="Retângulo_1640" data-name="Retângulo 1640" width="3" height="3" transform="translate(35 76)"/>
    <rect id="Retângulo_1641" data-name="Retângulo 1641" width="2" height="3" transform="translate(38 76)"/>
    <rect id="Retângulo_1642" data-name="Retângulo 1642" width="3" height="3" transform="translate(40 76)"/>
    <rect id="Retângulo_1643" data-name="Retângulo 1643" width="3" height="3" transform="translate(43 76)"/>
    <rect id="Retângulo_1644" data-name="Retângulo 1644" width="3" height="3" transform="translate(52 76)"/>
    <rect id="Retângulo_1645" data-name="Retângulo 1645" width="3" height="3" transform="translate(55 76)"/>
    <rect id="Retângulo_1646" data-name="Retângulo 1646" width="3" height="3" transform="translate(67 76)"/>
    <rect id="Retângulo_1647" data-name="Retângulo 1647" width="3" height="3" transform="translate(76 76)"/>
  </g>
</svg>
