<svg xmlns="http://www.w3.org/2000/svg" width="15.62" height="19.282" viewBox="0 0 15.62 19.282">
  <path id="profile" d="M838.4,485.385a3.786,3.786,0,0,0,3.859-3.538,3.668,3.668,0,0,0-3.859-3.538h0a3.54,3.54,0,1,0,0,7.075Zm6.5,2.473a.309.309,0,0,0-.073-.177,4.4,4.4,0,0,0-2.756-1.946,5.422,5.422,0,0,1-3.675,1.237,4.971,4.971,0,0,1-3.492-1.237,3.806,3.806,0,0,0-2.821,2.009c-.184.177-.119.119-.119.119a13.146,13.146,0,0,0-1.286,6.015,25.546,25.546,0,0,0,.367,3.714h14.7a13,13,0,0,0,.551-3.714,13.206,13.206,0,0,0-1.4-6.015Z" transform="translate(-830.68 -478.31)" fill="#f5f5f5"/>
</svg>