<svg xmlns="http://www.w3.org/2000/svg" width="21.404" height="21.404" viewBox="0 0 21.404 21.404">
  <path id="_1" data-name="1" d="M8.918,8.323,13.674,10.7,8.918,13.08ZM21.4,4.459V16.945A4.459,4.459,0,0,1,16.945,21.4H4.459A4.46,4.46,0,0,1,0,16.945V4.459A4.46,4.46,0,0,1,4.459,0H16.945A4.459,4.459,0,0,1,21.4,4.459ZM17.836,10.7c-.018-3.677-.288-5.083-2.607-5.241-2.143-.146-6.915-.145-9.055,0-2.317.158-2.59,1.558-2.608,5.241.018,3.677.288,5.083,2.607,5.241,2.139.145,6.912.146,9.055,0,2.317-.158,2.59-1.558,2.608-5.241Z" fill="#f5f5f5"/>
</svg>
